<svg width="150" height="150" viewBox="0 0 150 150" fill="none" xmlns="http://www.w3.org/2000/svg">
<g filter="url(#filter0_d)">
<path d="M110.812 48.3125C112.63 46.4993 114.867 45.162 117.325 44.4188C119.782 43.6757 122.385 43.5496 124.903 44.0518C127.421 44.554 129.776 45.6689 131.761 47.2979C133.745 48.927 135.298 51.02 136.281 53.3918C137.264 55.7637 137.648 58.3412 137.398 60.8965C137.148 63.4519 136.272 65.9062 134.848 68.0425C133.423 70.1788 131.495 71.9312 129.232 73.1447C126.969 74.3582 124.443 74.9954 121.875 75H12.5M59.9375 28.6875C61.3894 27.227 63.1797 26.1478 65.1492 25.5459C67.1187 24.944 69.2064 24.838 71.2267 25.2374C73.2471 25.6369 75.1374 26.5292 76.7297 27.8353C78.322 29.1413 79.567 30.8206 80.3539 32.7237C81.1409 34.6269 81.4454 36.695 81.2404 38.7442C81.0355 40.7933 80.3274 42.7602 79.1791 44.4698C78.0308 46.1793 76.4779 47.5787 74.6585 48.5435C72.839 49.5083 70.8094 50.0087 68.75 50H12.5L59.9375 28.6875ZM78.6875 121.312C80.1394 122.773 81.9297 123.852 83.8992 124.454C85.8687 125.056 87.9564 125.162 89.9767 124.763C91.9971 124.363 93.8874 123.471 95.4797 122.165C97.072 120.859 98.317 119.179 99.1039 117.276C99.8909 115.373 100.195 113.305 99.9904 111.256C99.7855 109.207 99.0774 107.24 97.9291 105.53C96.7808 103.821 95.2279 102.421 93.4085 101.456C91.589 100.492 89.5594 99.9914 87.5 100H12.5L78.6875 121.312Z" stroke="#9B5859" stroke-width="2.08333" stroke-linecap="round" stroke-linejoin="round"/>
</g>
<defs>
<filter id="filter0_d" x="0" y="0" width="160" height="160" filterUnits="userSpaceOnUse" color-interpolation-filters="sRGB">
<feFlood flood-opacity="0" result="BackgroundImageFix"/>
<feColorMatrix in="SourceAlpha" type="matrix" values="0 0 0 0 0 0 0 0 0 0 0 0 0 0 0 0 0 0 127 0"/>
<feOffset dx="5" dy="5"/>
<feGaussianBlur stdDeviation="2.5"/>
<feColorMatrix type="matrix" values="0 0 0 0 0 0 0 0 0 0 0 0 0 0 0 0 0 0 0.25 0"/>
<feBlend mode="normal" in2="BackgroundImageFix" result="effect1_dropShadow"/>
<feBlend mode="normal" in="SourceGraphic" in2="effect1_dropShadow" result="shape"/>
</filter>
</defs>
</svg>
