<svg width="155" height="155" viewBox="0 0 155 155" fill="none" xmlns="http://www.w3.org/2000/svg">
<g filter="url(#filter0_d)">
<path d="M75 106.25C92.2589 106.25 106.25 92.2589 106.25 75C106.25 57.7411 92.2589 43.75 75 43.75C57.7411 43.75 43.75 57.7411 43.75 75C43.75 92.2589 57.7411 106.25 75 106.25Z" stroke="#EA534E" stroke-width="2.08333" stroke-linecap="round" stroke-linejoin="round"/>
<path d="M75 6.25V18.75" stroke="#EA534E" stroke-width="2.08333" stroke-linecap="round" stroke-linejoin="round"/>
<path d="M75 131.25V143.75" stroke="#EA534E" stroke-width="2.08333" stroke-linecap="round" stroke-linejoin="round"/>
<path d="M26.375 26.375L35.25 35.25" stroke="#EA534E" stroke-width="2.08333" stroke-linecap="round" stroke-linejoin="round"/>
<path d="M114.75 114.75L123.625 123.625" stroke="#EA534E" stroke-width="2.08333" stroke-linecap="round" stroke-linejoin="round"/>
<path d="M6.25 75H18.75" stroke="#EA534E" stroke-width="2.08333" stroke-linecap="round" stroke-linejoin="round"/>
<path d="M131.25 75H143.75" stroke="#EA534E" stroke-width="2.08333" stroke-linecap="round" stroke-linejoin="round"/>
<path d="M26.375 123.625L35.25 114.75" stroke="#EA534E" stroke-width="2.08333" stroke-linecap="round" stroke-linejoin="round"/>
<path d="M114.75 35.25L123.625 26.375" stroke="#EA534E" stroke-width="2.08333" stroke-linecap="round" stroke-linejoin="round"/>
</g>
<defs>
<filter id="filter0_d" x="0" y="0" width="160" height="160" filterUnits="userSpaceOnUse" color-interpolation-filters="sRGB">
<feFlood flood-opacity="0" result="BackgroundImageFix"/>
<feColorMatrix in="SourceAlpha" type="matrix" values="0 0 0 0 0 0 0 0 0 0 0 0 0 0 0 0 0 0 127 0"/>
<feOffset dx="5" dy="5"/>
<feGaussianBlur stdDeviation="2.5"/>
<feColorMatrix type="matrix" values="0 0 0 0 0 0 0 0 0 0 0 0 0 0 0 0 0 0 0.25 0"/>
<feBlend mode="normal" in2="BackgroundImageFix" result="effect1_dropShadow"/>
<feBlend mode="normal" in="SourceGraphic" in2="effect1_dropShadow" result="shape"/>
</filter>
</defs>
</svg>
