<svg width="155" height="150" viewBox="0 0 155 150" fill="none" xmlns="http://www.w3.org/2000/svg">
<g filter="url(#filter0_d)">
<path d="M112.5 62.5H104.625C102.287 53.4437 97.4551 45.2249 90.6791 38.7775C83.9031 32.33 75.4545 27.9124 66.2933 26.0267C57.1321 24.141 47.6257 24.8628 38.8542 28.1099C30.0827 31.3571 22.3978 36.9996 16.6729 44.3961C10.948 51.7927 7.41252 60.6467 6.46825 69.9522C5.52398 79.2577 7.20877 88.6415 11.3312 97.0373C15.4536 105.433 21.8483 112.504 29.7887 117.447C37.7291 122.39 46.8968 125.007 56.2501 125H112.5C120.788 125 128.737 121.708 134.597 115.847C140.458 109.987 143.75 102.038 143.75 93.75C143.75 85.462 140.458 77.5134 134.597 71.6529C128.737 65.7924 120.788 62.5 112.5 62.5Z" stroke="#9B5859" stroke-width="2.08333" stroke-linecap="round" stroke-linejoin="round"/>
</g>
<defs>
<filter id="filter0_d" x="0" y="0" width="160" height="160" filterUnits="userSpaceOnUse" color-interpolation-filters="sRGB">
<feFlood flood-opacity="0" result="BackgroundImageFix"/>
<feColorMatrix in="SourceAlpha" type="matrix" values="0 0 0 0 0 0 0 0 0 0 0 0 0 0 0 0 0 0 127 0"/>
<feOffset dx="5" dy="5"/>
<feGaussianBlur stdDeviation="2.5"/>
<feColorMatrix type="matrix" values="0 0 0 0 0 0 0 0 0 0 0 0 0 0 0 0 0 0 0.25 0"/>
<feBlend mode="normal" in2="BackgroundImageFix" result="effect1_dropShadow"/>
<feBlend mode="normal" in="SourceGraphic" in2="effect1_dropShadow" result="shape"/>
</filter>
</defs>
</svg>
