<svg width="155" height="155" viewBox="0 0 155 155" fill="none" xmlns="http://www.w3.org/2000/svg">
<g filter="url(#filter0_d)">
<path d="M118.75 105.625C126.345 104.083 133.096 99.7737 137.692 93.5342C142.288 87.2947 144.402 79.5698 143.623 71.8594C142.844 64.1489 139.228 57.0029 133.477 51.8086C127.726 46.6142 120.25 43.7422 112.5 43.75H104.625C102.554 35.7332 98.5253 28.3562 92.8994 22.2811C87.2736 16.2061 80.2271 11.6233 72.3927 8.94412C64.5583 6.26495 56.1812 5.57331 48.0134 6.93128C39.8457 8.28925 32.143 11.6543 25.597 16.7244C19.051 21.7945 13.8665 28.4108 10.509 35.9794C7.15159 43.548 5.72626 51.8319 6.36103 60.0874C6.9958 68.3429 9.67079 76.3116 14.1458 83.2779C18.6209 90.2443 24.7559 95.9902 32.0001 100" stroke="#1B1C1E" stroke-width="2.08333" stroke-linecap="round" stroke-linejoin="round"/>
<path d="M81.25 68.75L56.25 106.25H93.75L68.75 143.75" stroke="#1B1C1E" stroke-width="2.08333" stroke-linecap="round" stroke-linejoin="round"/>
</g>
<defs>
<filter id="filter0_d" x="0" y="0" width="160" height="160" filterUnits="userSpaceOnUse" color-interpolation-filters="sRGB">
<feFlood flood-opacity="0" result="BackgroundImageFix"/>
<feColorMatrix in="SourceAlpha" type="matrix" values="0 0 0 0 0 0 0 0 0 0 0 0 0 0 0 0 0 0 127 0"/>
<feOffset dx="5" dy="5"/>
<feGaussianBlur stdDeviation="2.5"/>
<feColorMatrix type="matrix" values="0 0 0 0 0 0 0 0 0 0 0 0 0 0 0 0 0 0 0.25 0"/>
<feBlend mode="normal" in2="BackgroundImageFix" result="effect1_dropShadow"/>
<feBlend mode="normal" in="SourceGraphic" in2="effect1_dropShadow" result="shape"/>
</filter>
</defs>
</svg>
